<svg width="1080" height="1080" viewBox="0 0 1080 1080" fill="none" xmlns="http://www.w3.org/2000/svg">
<path d="M1028.2 297H51.8999V547H1028.2V297Z" fill="black"/>
<path d="M76.1001 526.3V314.2H107.3V402C111.2 394.7 117.5 388.7 126.2 383.9C134.8 379.1 144.6 376.7 155.4 376.7C173.5 376.7 187.2 382.2 196.6 393.1C206 404 210.7 419.7 210.7 440.1V526.4H179.5V444.5C179.5 432.3 176.6 422.9 170.7 416.2C164.8 409.5 156.7 406.2 146.2 406.2C135.7 406.2 126.2 409.8 118.7 417.1C111.1 424.4 107.4 434.9 107.4 448.6V526.4H76.2001L76.1001 526.3Z" fill="white"/>
<path d="M303.9 529.8C289.8 529.8 277.3 526.6 266.5 520.2C255.7 513.8 247.2 504.9 241.2 493.5C235.1 482.1 232.1 468.9 232.1 453.7C232.1 438.5 235.1 424.9 241.1 413.3C247.1 401.7 255.5 392.7 266.4 386.2C277.3 379.7 289.9 376.5 304.3 376.5C318.7 376.5 330.6 379.7 340.8 386.1C351 392.5 358.9 401 364.5 411.6C370.1 422.2 372.9 433.9 372.9 446.7V453C372.9 455.3 372.8 457.8 372.6 460.5H262.7C263.7 474.1 268.1 484.3 276 491.3C283.9 498.3 293.1 501.8 303.7 501.8C314.3 501.8 320.2 499.9 325.6 496.1C331 492.3 335 487 337.5 480.3H369C365.5 494.2 358.1 506 346.9 515.5C335.7 525 321.4 529.8 303.9 529.8ZM303.9 403.7C294.3 403.7 285.7 406.6 278.3 412.4C270.8 418.2 266 426.3 263.9 436.7H341.7C340.9 426.9 337.1 418.9 330.2 412.8C323.3 406.7 314.6 403.7 304 403.7H303.9Z" fill="white"/>
<path d="M448.2 529.8C430.5 529.8 417.1 524.3 408 513.4C398.9 502.5 394.3 486.6 394.3 465.8V380.1H425.5V462C425.5 474 428.1 483.4 433.3 490.1C438.5 496.9 446.5 500.3 457.3 500.3C468.1 500.3 477.1 496.7 484.4 489.4C491.7 482.1 495.3 471.6 495.3 457.9V380.1H526.5V526.2H499.4L496.7 504.4H495.2C491.3 511.5 485.2 517.5 476.9 522.4C468.7 527.3 459 529.8 448 529.8H448.2Z" fill="white"/>
<path d="M551.9 526.3V499.2H600.8V351C600.8 344.5 597.7 341.3 591.4 341.3H556V314.2H597C608.4 314.2 617.1 317.2 623.1 323.2C629.1 329.2 632.1 337.9 632.1 349.3V499.3H681.3V526.4H552L551.9 526.3Z" fill="white"/>
<path d="M766.1 529.8C754.5 529.8 744.8 527.8 736.9 523.8C729 519.8 723.1 514.4 719.2 507.6C715.3 500.8 713.3 493.4 713.3 485.4C713.3 471.1 718.6 459.9 729.1 451.8C739.6 443.7 754.5 439.7 773.7 439.7H811.4V436.5C811.4 414.5 801.2 403.5 780.8 403.5C760.4 403.5 765.2 405.3 759.4 409C753.6 412.6 749.7 418.5 747.8 426.5H716.6C718.2 411.2 724.8 399.1 736.5 390.1C748.2 381.2 763 376.7 780.8 376.7C798.6 376.7 818.1 382 827.9 392.6C837.7 403.2 842.6 417.8 842.6 436.5V526.4H816.1L813.4 504.9H811.3C807 511.8 801.6 517.7 795.1 522.6C788.6 527.5 778.9 530 765.9 530L766.1 529.8ZM772 503.6C784.8 503.6 794.3 499.7 800.7 492C807.1 484.2 810.6 474.4 811.2 462.4H777C765.8 462.4 757.9 464.2 753.3 467.9C748.7 471.5 746.4 476.6 746.4 483.1C746.4 489.6 748.7 494.6 753.3 498.3C757.9 501.9 764.2 503.8 772 503.8V503.6Z" fill="white"/>
<path d="M925.5 529.8C907.8 529.8 894.4 524.3 885.3 513.4C876.2 502.5 871.6 486.6 871.6 465.8V380.1H902.8V462C902.8 474 905.4 483.4 910.6 490.1C915.8 496.9 923.8 500.3 934.6 500.3C945.4 500.3 954.4 496.7 961.7 489.4C969 482.1 972.6 471.6 972.6 457.9V380.1H1003.8V526.2H976.7L974 504.4H972.5C968.6 511.5 962.5 517.5 954.2 522.4C946 527.3 936.3 529.8 925.3 529.8H925.5Z" fill="white"/>
<path d="M112.4 779.5C102 779.5 94.2 776.2 89.1 769.6C84 763 82.4 754.2 84.4 743.2L109.1 604.1C110.3 597.6 107.7 594.4 101.4 594.4H66L70.7 567.3H111.7C124.3 567.3 132.7 570.2 137 576.1C141.3 582 142.4 591.2 140.2 603.8L115.5 742.6C114.5 749.1 117.2 752.3 123.5 752.3H165L160.3 779.4H112.3L112.4 779.5Z" fill="black"/>
<path d="M242.3 783C231.9 783 222.5 780.4 214 775.3C205.6 770.2 198.8 762.6 193.8 752.6C188.8 742.6 186.3 730.3 186.3 715.8C186.3 701.3 188 693.9 191.3 683.7C194.6 673.5 199.6 664.3 206.3 656.2C213 648.1 221.2 641.6 231 636.9C240.8 632.2 252.2 629.8 265.2 629.8C278.2 629.8 285.1 632 291.9 636.4C298.7 640.8 303.3 646.1 305.9 652.2L309.1 633.3H340.6L321.2 742C320 748.9 322.9 752.3 329.7 752.3H342.1L337.1 779.4H309.7C303.2 779.4 298.3 777.6 294.8 773.9C291.4 770.3 289.6 765.7 289.6 760.2V757.3H287.8C283.7 765.2 277.9 771.4 270.6 776C263.2 780.6 253.8 782.9 242.2 782.9L242.3 783ZM252.4 753.3C262.6 753.3 271.2 750.6 278 745.3C284.9 740 290 733.1 293.5 724.5C296.9 716 298.7 706.9 298.7 697.2C298.7 687.5 295.7 675.7 289.7 669.2C283.7 662.7 275.9 659.5 266.3 659.5C256.7 659.5 247.7 662 240.7 667C233.6 672 228.2 678.5 224.5 686.6C220.8 694.7 218.9 703.4 218.9 712.8C218.9 722.2 222.1 735.5 228.5 742.6C234.9 749.7 242.9 753.2 252.5 753.2L252.4 753.3Z" fill="black"/>
<path d="M421.2 783C410 783 401 780.6 394.2 775.9C387.4 771.2 382.4 764.9 379 757H377.2L371 779.4H343.9L381.3 567.3H412.5L398.1 649.2C402.4 643.9 408.5 639.3 416.2 635.5C424 631.7 433 629.8 443.5 629.8C454 629.8 463.2 632.5 471.3 637.8C479.4 643.1 485.9 650.7 490.7 660.5C495.5 670.3 497.9 682.1 497.9 695.9C497.9 709.7 494.8 726.1 488.6 739.4C482.4 752.7 473.6 763.3 462.1 771.2C450.6 779.2 436.9 783.1 421 783.1L421.2 783ZM418.2 753.3C428.6 753.3 437.4 750.7 444.4 745.6C451.5 740.5 456.8 733.7 460.3 725.3C463.8 716.9 465.6 707.7 465.6 697.9C465.6 688.1 462.7 676.1 456.9 669.5C451.1 662.9 443.3 659.6 433.5 659.6C423.7 659.6 414.6 662.2 407.6 667.4C400.5 672.6 395.1 679.4 391.4 687.7C387.7 696.1 385.8 705 385.8 714.7C385.8 724.4 388.8 737.1 394.9 743.6C401 750.1 408.7 753.3 418.2 753.3Z" fill="black"/>
<path d="M521.7 759L611.1 669.6C615.3 665.4 612.3 658.2 606.4 658.2H552.1C548.4 658.2 545.4 655.2 545.4 651.5V633.7C545.4 630 548.4 627 552.1 627H644.6H669.1C672.8 627 675.8 630 675.8 633.7V658.2V750.7C675.8 754.4 672.8 757.4 669.1 757.4H651.3C647.6 757.4 644.6 754.4 644.6 750.7V696.4C644.6 690.4 637.4 687.4 633.2 691.7L543.8 781.1C541.2 783.7 536.9 783.7 534.3 781.1L521.7 768.5C519.1 765.9 519.1 761.6 521.7 759Z" fill="black"/>
<path d="M692 629.1H687V626.9H699.6V629.1H694.6V643.3H692V629.1Z" fill="black"/>
<path d="M700.2 626.9H703.1L708.4 640L713.7 626.9H716.7V643.3H714.4V631.2H713.2L715.9 627.3L709.4 643.2H707.5L701 627.3L703.7 631.2H702.5V643.3H700.2V626.9Z" fill="black"/>
</svg>
